<?xml version="1.0" encoding="UTF-8"?>
<svg width="512" height="512" viewBox="0 0 512 512" fill="none" xmlns="http://www.w3.org/2000/svg">
  <rect width="512" height="512" rx="128" fill="#E60012"/>
  <path d="M256 128C179.307 128 117 190.307 117 257C117 323.693 179.307 386 256 386C332.693 386 395 323.693 395 257C395 190.307 332.693 128 256 128ZM256 352C197.019 352 149 303.981 149 245C149 186.019 197.019 138 256 138C314.981 138 363 186.019 363 245C363 303.981 314.981 352 256 352Z" fill="white"/>
  <path d="M256 181C214.908 181 181 214.908 181 256C181 297.092 214.908 331 256 331C297.092 331 331 297.092 331 256C331 214.908 297.092 181 256 181ZM256 297C232.908 297 215 279.092 215 256C215 232.908 232.908 215 256 215C279.092 215 297 232.908 297 256C297 279.092 279.092 297 256 297Z" fill="white"/>
  <circle cx="256" cy="256" r="41" fill="white"/>
</svg>